<svg xmlns="http://www.w3.org/2000/svg" width="40" height="40" viewBox="0 0 40 40"><defs><style>.a{fill:none;}.b{fill:#000067;}</style></defs><path class="a" d="M0,0H40V40H0Z"/><path class="b" d="M-1029-3568h-14a5.006,5.006,0,0,1-5-5v-26a5.006,5.006,0,0,1,5-5h14a5.006,5.006,0,0,1,5,5v26A5.006,5.006,0,0,1-1029-3568Zm-13-32a2,2,0,0,0-2,2v24a2,2,0,0,0,2,2h12a2,2,0,0,0,2-2v-24a2,2,0,0,0-2-2Z" transform="translate(1056 3606)"/><rect class="b" width="4" height="4" rx="2" transform="translate(18 26)"/></svg>