<svg xmlns="http://www.w3.org/2000/svg" width="24" height="24" viewBox="0 0 24 24"><defs><style>.a{fill:none;}.b{fill:#fff;}</style></defs><g transform="translate(-8 -8)"><path class="a" d="M0,0H24V24H0Z" transform="translate(8 8)"/><path class="b" d="M-4711.8-8181H-4722.2a3.8,3.8,0,0,1-3.8-3.8V-8195.2a3.8,3.8,0,0,1,3.8-3.8h10.408a3.8,3.8,0,0,1,3.8,3.8v10.406A3.8,3.8,0,0,1-4711.8-8181Zm-10.2-16a2,2,0,0,0-2,2v10a2,2,0,0,0,2,2h10a2,2,0,0,0,2-2v-10a2,2,0,0,0-2-2Z" transform="translate(4737 8210)"/><path class="b" d="M17.99,9,16.58,7.58,9.99,14.17,7.41,11.6,5.99,13.01l4,3.99Z" transform="translate(8 8)"/></g></svg>