<svg xmlns="http://www.w3.org/2000/svg" width="24" height="24" viewBox="0 0 24 24"><defs><style>.a{fill:none;}.b{fill:#ce58e7;}</style></defs><path class="a" d="M0,0H24V24H0Z"/><path class="b" d="M-4519-2387a2.006,2.006,0,0,1-2-2v-16a2.005,2.005,0,0,1,2-2h1v-2h2v2h4v-2h2v2h4v-2h2v2h1a2,2,0,0,1,2,2v16a2.005,2.005,0,0,1-2,2Zm0-2h16v-16h-1v1.983h-2V-2405h-4v2h-2v-2h-4v1.983h-2V-2405h-1Z" transform="translate(4523 2410)"/><path class="b" d="M-4.741-5.405h.878q1.044,0,1.044-.989a.84.84,0,0,0-.249-.628.961.961,0,0,0-.7-.243,1.031,1.031,0,0,0-.643.208.629.629,0,0,0-.273.518H-6.547a1.8,1.8,0,0,1,.354-1.1,2.323,2.323,0,0,1,.98-.751,3.449,3.449,0,0,1,1.378-.27,3.372,3.372,0,0,1,2.11.593,1.947,1.947,0,0,1,.768,1.63,1.607,1.607,0,0,1-.318.949,2.25,2.25,0,0,1-.925.724,2.163,2.163,0,0,1,1.005.681A1.755,1.755,0,0,1-.83-2.947,1.985,1.985,0,0,1-1.658-1.28a3.52,3.52,0,0,1-2.176.625A3.67,3.67,0,0,1-5.3-.946a2.283,2.283,0,0,1-1.025-.807,2.048,2.048,0,0,1-.348-1.173H-4.8a.8.8,0,0,0,.3.62,1.074,1.074,0,0,0,.735.262,1.126,1.126,0,0,0,.784-.265.87.87,0,0,0,.293-.676A1.015,1.015,0,0,0-3-3.818a1.3,1.3,0,0,0-.84-.246h-.906ZM3.326-.761H1.459V-6.394l-1.834.518V-7.361l3.53-1.181h.171Z" transform="translate(13.674 18.654)"/></svg>