<svg xmlns="http://www.w3.org/2000/svg" width="40" height="40" viewBox="0 0 40 40"><defs><style>.a{fill:none;}.b,.c{fill:#000067;}.c{isolation:isolate;}</style></defs><g transform="translate(35.139 -3.276)"><path class="a" d="M0,0H40V40H0Z" transform="translate(-35.139 3.276)"/><g transform="translate(-26.567 10.276)"><path class="b" d="M-160.02,149.61a6.5,6.5,0,0,0-6.5,6.5,6.509,6.509,0,0,0,6.5,6.5,6.519,6.519,0,0,0,6.5-6.5A6.509,6.509,0,0,0-160.02,149.61Zm0,10.563a4.064,4.064,0,0,1-4.063-4.063,4.064,4.064,0,0,1,4.063-4.063,4.069,4.069,0,0,1,4.063,4.063A4.069,4.069,0,0,1-160.02,160.173Z" transform="translate(171.948 -148.61)"/><path class="c" d="M-150.983,178.61h0a1.162,1.162,0,0,1-1.112-.778,10.188,10.188,0,0,0-9.71-6.914,10.188,10.188,0,0,0-9.71,6.914,1.162,1.162,0,0,1-1.112.778h0a1.166,1.166,0,0,1-1.117-1.535A12.541,12.541,0,0,1-161.8,168.61a12.549,12.549,0,0,1,11.939,8.465A1.166,1.166,0,0,1-150.983,178.61Z" transform="translate(173.232 -153.61)"/></g></g></svg>