<svg xmlns="http://www.w3.org/2000/svg" width="24" height="24.001" viewBox="0 0 24 24.001"><defs><style>.a{fill:#fce251;}.b{fill:#009be3;}.c{fill:#0247fc;}.d{fill:#16e238;}.e{fill:#ff8d0a;}.f{fill:#fe2713;}.g{fill:#7301ae;}</style></defs><g transform="translate(-0.001)"><path class="a" d="M565,360.46l10.309,10.3L565,381.064Z" transform="translate(-564.999 -358.762)"/><path class="b" d="M568.959,356.5h20.6l-10.3,10.309Z" transform="translate(-567.261 -356.5)"/><path class="c" d="M610.959,364.766l4.306-4.306v8.611h0Z" transform="translate(-591.264 -358.762)"/><path class="d" d="M607.268,398.769H596.959l10.309-10.31Zm-2.859-4.288a1.429,1.429,0,1,0,1.011.419A1.429,1.429,0,0,0,604.409,394.481Zm0,2.655a1.225,1.225,0,1,1,1.225-1.226A1.225,1.225,0,0,1,604.409,397.136Zm-.3-1.1h.352l.4.633h.212l-.419-.666a.467.467,0,0,0,.193-.1.393.393,0,0,0,.137-.32.413.413,0,0,0-.136-.326.528.528,0,0,0-.361-.12h-.557v1.525h.178Zm.377-.171h-.377v-.548h.377a.349.349,0,0,1,.235.068.31.31,0,0,1,0,.409.347.347,0,0,1-.235.067Z" transform="translate(-583.267 -374.768)"/><path class="e" d="M568.949,407.7l3.6-3.6h8.611l-3.6,3.6Z" transform="translate(-567.255 -383.701)"/><path class="f" d="M582.949,392.762l4.31-4.308,4.306,4.305h0Z" transform="translate(-575.259 -374.76)"/><path class="g" d="M596.959,378.765l4.306-4.306,4.306,4.306-4.306,4.306Z" transform="translate(-583.267 -366.765)"/></g></svg>