<svg xmlns="http://www.w3.org/2000/svg" width="24" height="24" viewBox="0 0 24 24"><defs><style>.a{fill:none;}.b{fill:#ce58e7;}</style></defs><path class="a" d="M24,0H0V24H24Z"/><path class="b" d="M20.332,2.378a1.884,1.884,0,0,0-1.889-.29L2.151,8.569a1.821,1.821,0,0,0,.1,3.42l3.3,1.129L7.378,19.1a.888.888,0,0,0,.108.226c.007.011.017.019.024.029a.892.892,0,0,0,.192.193c.021.016.041.031.063.045a.9.9,0,0,0,.282.122h.011l.006,0a.942.942,0,0,0,.184.018c.006,0,.011,0,.017,0a.914.914,0,0,0,.274-.047c.021-.007.038-.018.058-.027a.907.907,0,0,0,.186-.1l.138-.115,2.457-2.672,3.664,2.8A1.866,1.866,0,0,0,18,18.491L20.962,4.144a1.8,1.8,0,0,0-.63-1.765ZM8.609,13.4a.886.886,0,0,0-.248.453L8.08,15.2l-.713-2.323,3.7-1.9Zm7.547,4.751-4.33-3.305a.92.92,0,0,0-1.231.107l-.787.856.278-1.332,6.439-6.345a.886.886,0,0,0,.091-1.163.917.917,0,0,0-1.153-.264L6.223,11.45,2.837,10.229,19.181,3.786Z" transform="translate(1 1.046)"/></svg>