<svg xmlns="http://www.w3.org/2000/svg" width="24" height="24" viewBox="0 0 24 24"><defs><style>.a{fill:none;}</style></defs><g transform="translate(-1238 -469.874)"><path d="M10,15.5H9.992a51.1,51.1,0,0,1-7.45-.479A3.152,3.152,0,0,1,.367,12.765,24.417,24.417,0,0,1,0,8.02,24.877,24.877,0,0,1,.366,3.239v0A3.219,3.219,0,0,1,2.539.964l.008,0A52.986,52.986,0,0,1,9.992.5H10c.605,0,5.954.055,7.452.48a3.151,3.151,0,0,1,2.172,2.252A23.688,23.688,0,0,1,20,8.038a24.484,24.484,0,0,1-.366,4.738v0a3.152,3.152,0,0,1-2.176,2.256h0A53.032,53.032,0,0,1,10,15.5H10ZM1.876,3.655a24.059,24.059,0,0,0-.314,4.355v.021a22.605,22.605,0,0,0,.314,4.314,1.553,1.553,0,0,0,1.073,1.11A50.415,50.415,0,0,0,10,13.878a52.455,52.455,0,0,0,7.051-.408,1.554,1.554,0,0,0,1.07-1.109,22.682,22.682,0,0,0,.314-4.314c0-.009,0-.017,0-.026A21.893,21.893,0,0,0,18.12,3.66v0a1.555,1.555,0,0,0-1.073-1.112A50.225,50.225,0,0,0,10,2.121a52.526,52.526,0,0,0-7.049.407A1.6,1.6,0,0,0,1.876,3.655Zm17,8.915h0ZM8.006,11.283V4.716L13.475,8Zm0,0" transform="translate(1240.002 474.375)"/><path class="a" d="M0,0H24V24H0Z" transform="translate(1238 469.874)"/></g></svg>