<svg xmlns="http://www.w3.org/2000/svg" width="24" height="24" viewBox="0 0 24 24"><defs><style>.a{fill:none;}.b{fill:#fff;}</style></defs><g transform="translate(-4 -4)"><g transform="translate(4 4)"><path class="a" d="M0,0H24V24H0Z"/><path class="b" d="M-1164-3616h-2v-2h-3a2,2,0,0,1-2-2v-12a2,2,0,0,1,2-2h18a2,2,0,0,1,2,2l0,6h-2v-6h-18v12h5v4Z" transform="translate(1172 3635)"/><path class="b" d="M4,9H16V7H4A2.006,2.006,0,0,0,2,9v8H0v2H8V17H4Zm11,2H11a1,1,0,0,0-1,1v6a1,1,0,0,0,1,1h4a1,1,0,0,0,1-1V12A1,1,0,0,0,15,11Zm-1,6H12V13h2Z" transform="translate(8 4)"/></g></g></svg>