<?xml version="1.0"?>
<svg xmlns="http://www.w3.org/2000/svg" viewBox="0 0 64 64" width="512" height="512"><g id="solid"><path d="M29,33H26.085A6.706,6.706,0,0,0,29,37.292Z"/><path d="M18,51H28V50a3.96,3.96,0,0,1,.141-1L18,46.3Z"/><path d="M22.66,41a4.654,4.654,0,0,0-4.452,3.287L29.149,47.2a4.018,4.018,0,0,1,.943-.7l-4.139-4.139A4.7,4.7,0,0,0,22.66,41Z"/><path d="M49.381,48.737,49.218,47.6c-.072-.5-.17-1-.286-1.495-.006-.023-.009-.044-.015-.067l-.034-.125-.066-.229c-.1-.392-.209-.784-.338-1.166l-.113-.289c-.141-.391-.289-.785-.461-1.166l-.094-.191c-.189-.407-.387-.809-.607-1.2l-.007-.011-.01-.011c-.034-.059-.065-.108-.1-.165-.221-.38-.452-.759-.7-1.124a19.351,19.351,0,0,0-1.8-2.087A12.949,12.949,0,0,1,32,48a2,2,0,0,0-2,2v5a2,2,0,0,0,2,2,24.8,24.8,0,0,0,17.532-7.185Z"/><path d="M19.459,58.71A4.634,4.634,0,0,0,22.66,60h1.18a4.792,4.792,0,0,0,1.842-.381l3.727-1.6a3.982,3.982,0,0,1-.968-1.235Z"/><path d="M9.459,19.715A4,4,0,0,0,12,16V13.414l-1.293,1.293L9.293,13.293l3-3A1,1,0,0,1,14,11v5a6.005,6.005,0,0,1-4.052,5.669l.63,2.521,9.137-8.375-.489-1.792A8.119,8.119,0,0,0,11.39,8h0A3.345,3.345,0,0,0,8.616,9.386a4.989,4.989,0,0,0-.657,4.331Z"/><path d="M55.313,9A11.02,11.02,0,0,0,49,7H42.2a26.911,26.911,0,0,1,3.942,2Z"/><path d="M21.9,23.77,20.31,17.983,8.383,28.914A1.22,1.22,0,0,0,8.1,29.7,1.282,1.282,0,0,0,9.39,31C13.926,31,17.8,28.766,21.9,23.77Z"/><path d="M38.275,34.052s-.084-.021-.153-.044c-.416-.148-.823-.291-1.23-.4-.1-.018-.258-.052-.429-.1-.269-.067-.559-.132-.848-.192a8.626,8.626,0,0,0,.405,5.636l2.693-4.712C38.564,34.177,38.425,34.11,38.275,34.052Z"/><path d="M28,53H18v2.34a4.61,4.61,0,0,0,.293,1.575L28,54.836Z"/><circle cx="25" cy="9" r="2"/><path d="M58.078,25H60V23H57.462C57.7,23.66,57.9,24.327,58.078,25Z"/><path d="M59,32c0,.09-.01.177-.011.266A12.643,12.643,0,0,0,60,27.34V27H58.533A27.122,27.122,0,0,1,59,32Z"/><path d="M55.077,22.384A24.922,24.922,0,0,0,32,7a25.177,25.177,0,0,0-3.424.243A3.953,3.953,0,0,1,29,9a4,4,0,0,1-8,0,3.939,3.939,0,0,1,.142-1H17.413a10.081,10.081,0,0,1,3.743,5.5l2.808,10.233a1,1,0,0,1-.183.89A25.691,25.691,0,0,1,16.814,31H17a10.019,10.019,0,0,0,7.54-3.421l.992-1.134a6.889,6.889,0,0,0,1.5-6.2l1.94-.484a8.888,8.888,0,0,1-1.932,8L26.046,28.9A12,12,0,0,1,23.609,31H27a9,9,0,0,0,3.6-17.251l.8-1.833a10.993,10.993,0,0,1,1.856,19.121c.283.013.569.015.848.036.224.024.41.053.6.083l.286.044.045.006.024,0,.213.026c.172.02.346.04.52.071.4.076.793.171,1.171.265.144.038.266.064.395.09.524.143.976.3,1.419.458l.123.036.1.034c.464.182.927.374,1.373.584a1.138,1.138,0,0,1,.147.063,18.829,18.829,0,0,1,4.059,2.609l.048.046.015.011.078.078,1.648,1.58a17.988,17.988,0,0,1,1.639,2.029l.029.044c.03.045.057.095.087.14.258.381.5.771.753,1.207l.055.09c.011.019.025.035.035.055.224.4.446.851.656,1.3.055.1.085.162.111.224.186.412.357.858.515,1.3l.106.263c.16.5.285.922.4,1.358l.036.129c.014.049.027.1.04.154.01.034.021.067.029.1.028.117.042.237.068.355.106.474.206.941.27,1.393l.083.592a24.674,24.674,0,0,0,5.361-11.745A23.712,23.712,0,0,0,57,32a24.945,24.945,0,0,0-1.865-9.5A.965.965,0,0,1,55.077,22.384ZM41.4,11.442a19.4,19.4,0,0,1,8.1,6.537l.314.44-1.628,1.162-.314-.44A17.4,17.4,0,0,0,40.6,13.279ZM38.713,12.59a17.429,17.429,0,0,0-2.837-.6l.248-1.984a19.544,19.544,0,0,1,3.163.666ZM53.447,28.9l-.9.451a10.206,10.206,0,0,1-4.568,1.084,9.66,9.66,0,0,1-7.713-3.747l-.071-.093,1.616-1.18A7.865,7.865,0,0,0,51.115,27.8L43.386,21.79l1.228-1.58,9,7a1,1,0,0,1-.167,1.685Z"/><path d="M55.649,19c.355.65.688,1.315.993,2H60V19Z"/><path d="M47.937,57.343a7.951,7.951,0,0,0,2.057-5.229,27.209,27.209,0,0,1-2.248,1.813A9.672,9.672,0,0,1,47.937,57.343Z"/><path d="M54.437,17h5.517a11.015,11.015,0,0,0-.368-2H52.977C53.494,15.64,53.977,16.31,54.437,17Z"/><path d="M40,59a1,1,0,0,0,1,1h.28a16.126,16.126,0,0,0,.708-2.908c-.654.26-1.315.5-1.988.71Z"/><path d="M44.072,56.158a14.311,14.311,0,0,1-.643,3.707,7.916,7.916,0,0,0,2.184-.737,11.96,11.96,0,0,0,.329-4C45.332,55.5,44.707,55.839,44.072,56.158Z"/><path d="M51.191,13H58.8a10.916,10.916,0,0,0-1.32-2h-8.5A26.872,26.872,0,0,1,51.191,13Z"/><path d="M4,16V2H2V16a6.006,6.006,0,0,0,6,6V20A4,4,0,0,1,4,16Z"/></g></svg>
