<svg height="512" viewBox="0 0 128 128" width="512" xmlns="http://www.w3.org/2000/svg"><g><path d="m114.32 32.591-8.52-26.625a1.751 1.751 0 0 0 -1.667-1.216h-80.264a1.751 1.751 0 0 0 -1.669 1.216l-8.52 26.625a1.749 1.749 0 0 0 .133 1.378l48.654 88.375a1.75 1.75 0 0 0 3.066 0l48.654-88.375a1.749 1.749 0 0 0 .133-1.378zm-75.658 2.284 19.815 72.964-40.17-72.964zm3.627 0h43.422l-21.711 79.948zm47.049 0h20.355l-40.17 72.964zm20.918-3.5h-20.756l-3.656-23.125h17.01zm-27.956-23.125 3.651 23.125h-43.9l3.649-23.125zm-57.155 0h17.01l-3.65 23.125h-20.761z"/><path d="m23.972 25.859a1.747 1.747 0 0 0 2.2-1.133l2.538-7.926a1.75 1.75 0 1 0 -3.333-1.067l-2.538 7.929a1.749 1.749 0 0 0 1.133 2.197z"/></g></svg>